<svg width="34" height="34" viewBox="0 0 34 34" fill="none" xmlns="http://www.w3.org/2000/svg">
<path fill-rule="evenodd" clip-rule="evenodd" d="M8.99976 9.00003V7.22269C8.99976 5.99468 9.99443 5 11.2224 5H26.7786C28.0052 5 28.9999 5.99468 28.9999 7.22269V22.7788C28.9999 24.0055 28.0052 25.0002 26.7772 25.0002H24.9999" fill="#1CA5AE"/>
<path d="M8.99976 9.00003V7.22269C8.99976 5.99468 9.99443 5 11.2224 5H26.7786C28.0052 5 28.9999 5.99468 28.9999 7.22269V22.7788C28.9999 24.0055 28.0052 25.0002 26.7772 25.0002H24.9999" stroke="#1CA5AE" stroke-width="1.5" stroke-linecap="round" stroke-linejoin="round"/>
<path fill-rule="evenodd" clip-rule="evenodd" d="M22.7775 29H7.22269C5.99468 29 5 28.0053 5 26.7773V11.2225C5 9.99449 5.99468 8.99982 7.22269 8.99982H22.7788C24.0055 8.99982 25.0002 9.99449 25.0002 11.2225V26.7786C25.0002 28.0053 24.0055 29 22.7775 29Z" fill="#4DCBD3" stroke="#4DCBD3" stroke-width="1.5" stroke-linecap="round" stroke-linejoin="round"/>
<path fill-rule="evenodd" clip-rule="evenodd" d="M19.3325 25.6633H10.6693C10.3013 25.6633 10.0029 25.365 10.0029 24.997V24.4558C10.0073 22.9163 11.2543 21.6694 12.7938 21.665H17.208C18.7475 21.6694 19.9945 22.9163 19.9988 24.4558V24.997C19.9988 25.365 19.7005 25.6633 19.3325 25.6633Z" fill="#FFDD76" stroke="#FFDD76" stroke-width="1.5" stroke-linecap="round" stroke-linejoin="round"/>
<path fill-rule="evenodd" clip-rule="evenodd" d="M15.0008 18.3326C13.53 18.3326 12.3372 17.1414 12.3352 15.6706C12.3333 14.1998 13.5229 13.0054 14.9937 13.0015C16.4644 12.9976 17.6605 14.1856 17.6664 15.6564C17.6692 16.3652 17.3896 17.0459 16.8894 17.5481C16.3892 18.0503 15.7096 18.3326 15.0008 18.3326Z" fill="#FFDD76" stroke="#FFDD76" stroke-width="1.5" stroke-linecap="round" stroke-linejoin="round"/>
</svg>
