<svg width="20" height="20" viewBox="0 0 20 20" fill="none" xmlns="http://www.w3.org/2000/svg">
<path fill-rule="evenodd" clip-rule="evenodd" d="M1 9.182C1 11.865 2.42 14.227 4.599 15.716C4.598 16.571 4.6 17.723 4.6 18.932L8.131 17.185C8.735 17.301 9.359 17.364 10 17.364C14.952 17.364 19 13.721 19 9.182C19 4.643 14.952 1 10 1C5.048 1 1 4.643 1 9.182Z" stroke="#FCFCFC" stroke-width="1.5" stroke-linecap="round" stroke-linejoin="round"/>
<path d="M9.89899 10.219V10.012C9.89899 9.33398 10.318 8.96698 10.738 8.68498C11.148 8.40898 11.559 8.04898 11.559 7.38498C11.559 6.46798 10.816 5.72598 9.89999 5.72598C8.98399 5.72598 8.23999 6.46698 8.23999 7.38398" stroke="#FCFCFC" stroke-width="1.5" stroke-linecap="round" stroke-linejoin="round"/>
<path d="M9.89793 12.558C9.81493 12.558 9.74793 12.625 9.74893 12.708C9.74893 12.791 9.81593 12.858 9.89893 12.858C9.98193 12.858 10.0489 12.791 10.0489 12.708C10.0489 12.625 9.98293 12.558 9.89793 12.558" stroke="#FCFCFC" stroke-width="1.5" stroke-linecap="round" stroke-linejoin="round"/>
</svg>
