<svg width="32" height="32" viewBox="0 0 32 32" fill="none" xmlns="http://www.w3.org/2000/svg">
<path d="M28 28.0001L25.5414 25.5414" stroke="#FFDD76" stroke-width="1.5" stroke-linecap="round" stroke-linejoin="round"/>
<path fill-rule="evenodd" clip-rule="evenodd" d="M21.5865 15.9998C24.672 15.9998 27.1732 18.5011 27.1732 21.5865C27.1274 24.6527 24.6528 27.1274 21.5865 27.1732C18.5011 27.1732 15.9999 24.6719 15.9999 21.5865C15.9999 18.5011 18.5011 15.9998 21.5865 15.9998Z" fill="#4DCBD3"/>
<path d="M21.5865 15.9998C24.672 15.9998 27.1732 18.5011 27.1732 21.5865C27.1274 24.6527 24.6528 27.1274 21.5865 27.1731C18.5011 27.1731 15.9999 24.6719 15.9999 21.5865C15.9999 18.5011 18.5011 15.9998 21.5865 15.9998" stroke="#4DCBD3" stroke-width="1.5" stroke-linecap="round" stroke-linejoin="round"/>
<path d="M27.9999 13.3333V6.66661C27.9999 5.19385 26.806 3.99994 25.3333 3.99994H17.3333" stroke="#FFDD76" stroke-width="1.5" stroke-linecap="round" stroke-linejoin="round"/>
</svg>
