<svg width="693" height="540" viewBox="0 0 693 540" fill="none" xmlns="http://www.w3.org/2000/svg">
<rect x="90.4916" y="65.0847" width="602.034" height="408.814" rx="17" fill="#F8F8FA"/>
<rect x="103.712" y="81.3559" width="575.593" height="376.271" rx="9" fill="#F0F0F2"/>
<path fill-rule="evenodd" clip-rule="evenodd" d="M456.593 473.898H327.441V521.695L318.288 540H327.441H456.593H464.729L456.593 521.695V473.898Z" fill="url(#paint0_linear_1033_295)"/>
<rect x="122.017" y="100.678" width="258.305" height="332.542" rx="12" fill="#E9E9EA"/>
<rect x="397.61" y="255.254" width="258.305" height="178.983" rx="4" fill="#E9E9EA"/>
<rect x="397.61" y="102.712" width="258.305" height="27.4576" rx="4" fill="#E9E9EA"/>
<rect x="397.61" y="149.492" width="258.305" height="27.4576" rx="4" fill="#E9E9EA"/>
<rect x="306.085" width="278.644" height="358.983" rx="12" fill="#FCFCFC"/>
<path d="M109.814 255.254L109.59 255.97L109.814 255.254ZM379.814 513.051L379.951 513.788L379.814 513.051ZM655.915 235.424L656.649 235.269L655.915 235.424ZM506.452 127.559C506.134 127.825 506.091 128.298 506.356 128.616L510.677 133.801C510.942 134.119 511.415 134.162 511.734 133.897C512.052 133.632 512.095 133.159 511.83 132.841L507.989 128.232L512.598 124.391C512.916 124.125 512.959 123.652 512.694 123.334C512.429 123.016 511.956 122.973 511.638 123.238L506.452 127.559ZM1.72511 327.649C1.84625 327.191 1.97241 326.727 2.1036 326.258L0.65901 325.854C0.525914 326.33 0.39788 326.801 0.274889 327.266L1.72511 327.649ZM2.9329 323.442C3.21636 322.525 3.5177 321.592 3.83705 320.644L2.41563 320.165C2.09227 321.124 1.78704 322.07 1.4998 322.999L2.9329 323.442ZM4.81156 317.865C5.13988 316.963 5.48376 316.051 5.84332 315.129L4.446 314.584C4.08225 315.516 3.73431 316.439 3.40207 317.351L4.81156 317.865ZM6.93984 312.411C7.31213 311.517 7.69877 310.617 8.09986 309.711L6.72832 309.104C6.32271 310.02 5.93168 310.93 5.55514 311.834L6.93984 312.411ZM9.32213 307.032C9.73345 306.156 10.1581 305.276 10.5961 304.395L9.25276 303.727C8.80977 304.619 8.38034 305.508 7.96439 306.394L9.32213 307.032ZM11.9304 301.782C12.3828 300.92 12.848 300.057 13.3261 299.194L12.014 298.467C11.5304 299.34 11.0598 300.213 10.6022 301.085L11.9304 301.782ZM14.7779 296.643C15.2683 295.803 15.771 294.965 16.286 294.129L15.009 293.343C14.4877 294.189 13.979 295.037 13.4828 295.886L14.7779 296.643ZM17.8564 291.647C18.3874 290.83 18.9305 290.016 19.4856 289.206L18.2482 288.358C17.686 289.178 17.1362 290.003 16.5985 290.83L17.8564 291.647ZM21.1722 286.809C21.7438 286.019 22.3272 285.233 22.9224 284.454L21.7302 283.544C21.1269 284.334 20.5358 285.13 19.9567 285.93L21.1722 286.809ZM24.7334 282.147C25.3455 281.389 25.9694 280.637 26.6049 279.893L25.4644 278.919C24.8197 279.674 24.1869 280.436 23.5662 281.205L24.7334 282.147ZM28.5411 277.692C29.1958 276.969 29.862 276.255 30.5399 275.55L29.4587 274.51C28.7703 275.226 28.0938 275.951 27.4293 276.685L28.5411 277.692ZM32.6017 273.471C33.2993 272.789 34.0085 272.118 34.7293 271.458L33.7161 270.352C32.9832 271.023 32.2623 271.705 31.5534 272.398L32.6017 273.471ZM36.9197 269.517C37.6596 268.884 38.411 268.262 39.174 267.653L38.2383 266.48C37.4615 267.1 36.6968 267.733 35.944 268.378L36.9197 269.517ZM41.4937 265.868C42.2754 265.289 43.0686 264.723 43.8734 264.172L43.0255 262.934C42.2052 263.496 41.3969 264.073 40.6006 264.663L41.4937 265.868ZM46.3152 262.566C47.1386 262.046 47.9735 261.542 48.8199 261.054L48.0702 259.755C47.2066 260.253 46.3549 260.767 45.5151 261.297L46.3152 262.566ZM51.3757 259.647C52.2358 259.195 53.1072 258.761 53.99 258.343L53.3484 256.987C52.4468 257.414 51.5569 257.858 50.6789 258.318L51.3757 259.647ZM56.657 257.149C57.5487 256.772 58.4514 256.412 59.3654 256.07L58.8404 254.665C57.9064 255.014 56.9839 255.382 56.0729 255.767L56.657 257.149ZM62.1261 255.106C63.0455 254.807 63.9757 254.526 64.9169 254.264L64.5148 252.819C63.5527 253.087 62.6018 253.374 61.662 253.68L62.1261 255.106ZM67.7436 253.543C68.6879 253.324 69.6428 253.123 70.6084 252.943L70.3323 251.468C69.3455 251.653 68.3694 251.858 67.4042 252.082L67.7436 253.543ZM73.4777 252.468C74.4373 252.33 75.4072 252.212 76.3872 252.113L76.2369 250.621C75.2358 250.722 74.2451 250.843 73.2645 250.983L73.4777 252.468ZM79.2872 251.881C80.2517 251.824 81.2259 251.786 82.2097 251.768L82.1816 250.268C81.1776 250.287 80.1832 250.326 79.1984 250.384L79.2872 251.881ZM85.1305 251.77C86.0936 251.79 87.0657 251.829 88.0468 251.886L88.1347 250.389C87.1347 250.33 86.1436 250.291 85.1613 250.271L85.1305 251.77ZM90.9691 252.113C91.9258 252.204 92.8908 252.314 93.8642 252.443L94.0604 250.956C93.0696 250.825 92.0869 250.713 91.1125 250.619L90.9691 252.113ZM96.7699 252.877C97.7169 253.036 98.6717 253.211 99.6341 253.405L99.9297 251.934C98.9514 251.738 97.9805 251.559 97.0172 251.398L96.7699 252.877ZM102.507 254.03C103.443 254.249 104.386 254.485 105.336 254.738L105.722 253.289C104.758 253.032 103.8 252.792 102.849 252.57L102.507 254.03ZM108.162 255.534C108.636 255.675 109.112 255.821 109.59 255.97L110.038 254.538C109.553 254.387 109.07 254.24 108.589 254.096L108.162 255.534ZM109.59 255.97C110.064 256.118 110.534 256.275 111.002 256.439L111.5 255.024C111.016 254.854 110.528 254.692 110.038 254.538L109.59 255.97ZM113.766 257.522C114.675 257.915 115.571 258.339 116.455 258.794L117.141 257.46C116.228 256.99 115.301 256.551 114.361 256.145L113.766 257.522ZM119.035 260.227C119.881 260.733 120.716 261.267 121.54 261.83L122.386 260.591C121.537 260.012 120.677 259.461 119.804 258.94L119.035 260.227ZM123.973 263.595C124.743 264.187 125.504 264.804 126.256 265.446L127.23 264.305C126.459 263.647 125.678 263.014 124.887 262.406L123.973 263.595ZM128.486 267.445C129.211 268.126 129.927 268.83 130.636 269.558L131.71 268.51C130.987 267.768 130.254 267.048 129.513 266.352L128.486 267.445ZM132.651 271.707C133.316 272.444 133.974 273.201 134.625 273.977L135.774 273.013C135.112 272.224 134.442 271.453 133.765 270.703L132.651 271.707ZM136.534 276.332C137.134 277.098 137.729 277.88 138.319 278.679L139.526 277.788C138.928 276.978 138.324 276.184 137.714 275.407L136.534 276.332ZM140.073 281.123C140.652 281.953 141.226 282.798 141.795 283.659L143.046 282.831C142.47 281.961 141.889 281.105 141.303 280.265L140.073 281.123ZM143.393 286.131C143.921 286.968 144.445 287.818 144.966 288.681L146.25 287.906C145.725 287.035 145.195 286.176 144.661 285.33L143.393 286.131ZM146.518 291.307C147.015 292.164 147.508 293.034 147.999 293.914L149.309 293.184C148.815 292.297 148.317 291.42 147.816 290.555L146.518 291.307ZM149.429 296.527C149.903 297.408 150.375 298.3 150.844 299.201L152.174 298.508C151.702 297.601 151.228 296.704 150.75 295.816L149.429 296.527ZM152.243 301.933C152.685 302.808 153.124 303.691 153.562 304.583L154.909 303.922C154.469 303.025 154.027 302.137 153.583 301.257L152.243 301.933ZM154.87 307.281C155.304 308.189 155.736 309.105 156.167 310.028L157.526 309.393C157.093 308.466 156.659 307.546 156.223 306.634L154.87 307.281ZM157.444 312.793C157.854 313.691 158.263 314.594 158.67 315.505L160.039 314.892C159.63 313.978 159.22 313.071 158.809 312.17L157.444 312.793ZM159.89 318.254C160.296 319.177 160.701 320.106 161.105 321.04L162.481 320.445C162.076 319.508 161.67 318.576 161.263 317.651L159.89 318.254ZM162.304 323.835C162.692 324.746 163.08 325.662 163.467 326.584L164.85 326.002C164.462 325.079 164.073 324.161 163.684 323.247L162.304 323.835ZM164.628 329.362C165.014 330.292 165.401 331.228 165.787 332.167L167.174 331.597C166.787 330.656 166.4 329.719 166.013 328.786L164.628 329.362ZM166.941 334.987C167.315 335.907 167.69 336.83 168.065 337.757L169.455 337.195C169.08 336.267 168.705 335.342 168.33 334.422L166.941 334.987ZM169.19 340.549C169.565 341.484 169.941 342.421 170.317 343.362L171.71 342.806C171.333 341.864 170.957 340.925 170.582 339.99L169.19 340.549ZM171.446 346.195C171.815 347.121 172.185 348.051 172.555 348.983L173.949 348.429C173.579 347.497 173.209 346.567 172.84 345.64L171.446 346.195ZM173.665 351.78C174.035 352.715 174.407 353.652 174.779 354.592L176.174 354.039C175.801 353.1 175.43 352.162 175.059 351.227L173.665 351.78ZM175.899 357.417C176.27 358.351 176.641 359.288 177.014 360.226L178.408 359.672C178.035 358.734 177.664 357.798 177.293 356.864L175.899 357.417ZM178.126 363.022C178.498 363.956 178.871 364.891 179.246 365.827L180.638 365.27C180.264 364.335 179.891 363.4 179.52 362.467L178.126 363.022ZM180.373 368.641C180.75 369.579 181.128 370.518 181.508 371.458L182.899 370.896C182.519 369.957 182.142 369.019 181.765 368.082L180.373 368.641ZM182.639 374.248C183.018 375.179 183.398 376.111 183.78 377.043L185.168 376.474C184.787 375.543 184.407 374.613 184.029 373.683L182.639 374.248ZM184.932 379.841C185.318 380.775 185.705 381.709 186.095 382.642L187.479 382.065C187.09 381.133 186.703 380.2 186.318 379.269L184.932 379.841ZM187.264 385.431C187.654 386.358 188.047 387.285 188.442 388.211L189.822 387.623C189.428 386.699 189.036 385.773 188.646 384.848L187.264 385.431ZM189.633 390.991C190.032 391.917 190.434 392.843 190.838 393.769L192.213 393.169C191.809 392.245 191.409 391.322 191.01 390.397L189.633 390.991ZM192.057 396.542C192.464 397.464 192.874 398.384 193.287 399.304L194.655 398.69C194.244 397.773 193.835 396.855 193.428 395.936L192.057 396.542ZM194.533 402.061C194.951 402.979 195.372 403.895 195.795 404.811L197.157 404.181C196.734 403.268 196.315 402.354 195.898 401.439L194.533 402.061ZM197.074 407.554C197.504 408.467 197.936 409.379 198.372 410.29L199.725 409.642C199.291 408.735 198.86 407.826 198.432 406.915L197.074 407.554ZM199.688 413.017C200.13 413.925 200.575 414.83 201.023 415.734L202.367 415.067C201.92 414.167 201.477 413.265 201.037 412.36L199.688 413.017ZM202.378 418.439C202.833 419.339 203.292 420.237 203.753 421.132L205.086 420.444C204.626 419.552 204.17 418.658 203.717 417.762L202.378 418.439ZM205.156 423.822C205.627 424.717 206.102 425.609 206.58 426.498L207.901 425.787C207.425 424.902 206.952 424.014 206.483 423.123L205.156 423.822ZM208.027 429.157C208.512 430.04 209.002 430.921 209.496 431.798L210.803 431.063C210.312 430.19 209.824 429.313 209.341 428.434L208.027 429.157ZM210.996 434.432C211.501 435.31 212.011 436.184 212.525 437.055L213.817 436.292C213.305 435.426 212.798 434.556 212.295 433.683L210.996 434.432ZM214.079 439.656C214.602 440.52 215.129 441.379 215.66 442.235L216.935 441.444C216.406 440.593 215.882 439.738 215.363 438.879L214.079 439.656ZM217.269 444.793C217.814 445.648 218.364 446.5 218.919 447.347L220.174 446.525C219.623 445.684 219.076 444.837 218.534 443.987L217.269 444.793ZM220.598 449.876C221.163 450.714 221.732 451.548 222.307 452.377L223.54 451.522C222.969 450.699 222.403 449.871 221.842 449.038L220.598 449.876ZM224.045 454.849C224.633 455.674 225.227 456.493 225.825 457.307L227.034 456.419C226.439 455.61 225.85 454.797 225.266 453.978L224.045 454.849ZM227.644 459.742C228.256 460.549 228.873 461.35 229.495 462.145L230.676 461.22C230.058 460.431 229.446 459.636 228.839 458.836L227.644 459.742ZM231.38 464.514C232.016 465.299 232.657 466.078 233.304 466.852L234.454 465.89C233.813 465.123 233.177 464.349 232.547 463.57L231.38 464.514ZM235.274 469.168C235.937 469.934 236.607 470.694 237.282 471.447L238.398 470.445C237.729 469.699 237.066 468.946 236.409 468.187L235.274 469.168ZM239.326 473.686C240.014 474.425 240.708 475.158 241.408 475.884L242.488 474.843C241.794 474.123 241.106 473.397 240.425 472.664L239.326 473.686ZM243.539 478.05C244.256 478.766 244.98 479.474 245.71 480.174L246.749 479.092C246.025 478.398 245.308 477.697 244.598 476.988L243.539 478.05ZM247.922 482.254C248.666 482.939 249.417 483.617 250.175 484.287L251.169 483.163C250.418 482.5 249.675 481.829 248.938 481.15L247.922 482.254ZM252.47 486.272C253.241 486.926 254.02 487.571 254.806 488.208L255.751 487.043C254.973 486.413 254.203 485.774 253.439 485.127L252.47 486.272ZM257.186 490.095C257.987 490.715 258.795 491.327 259.611 491.93L260.503 490.724C259.696 490.128 258.897 489.523 258.105 488.909L257.186 490.095ZM262.075 493.71C262.899 494.291 263.73 494.863 264.569 495.426L265.405 494.18C264.576 493.624 263.754 493.058 262.94 492.484L262.075 493.71ZM267.108 497.087C267.962 497.632 268.823 498.167 269.693 498.693L270.469 497.41C269.61 496.89 268.758 496.361 267.914 495.822L267.108 497.087ZM272.325 500.243C273.197 500.742 274.076 501.232 274.963 501.712L275.678 500.393C274.801 499.919 273.932 499.435 273.071 498.941L272.325 500.243ZM277.641 503.121C278.541 503.581 279.449 504.031 280.365 504.471L281.015 503.119C280.11 502.684 279.212 502.239 278.323 501.785L277.641 503.121ZM283.138 505.762C284.059 506.178 284.988 506.584 285.926 506.979L286.509 505.597C285.583 505.206 284.665 504.805 283.754 504.395L283.138 505.762ZM288.71 508.116C289.646 508.485 290.589 508.844 291.541 509.193L292.057 507.785C291.117 507.44 290.185 507.085 289.26 506.72L288.71 508.116ZM294.419 510.211C295.387 510.54 296.362 510.858 297.346 511.167L297.795 509.736C296.822 509.431 295.858 509.116 294.902 508.79L294.419 510.211ZM300.222 512.033C301.18 512.309 302.146 512.576 303.119 512.833L303.502 511.382C302.539 511.128 301.585 510.865 300.638 510.591L300.222 512.033ZM306.062 513.574C307.05 513.811 308.047 514.038 309.051 514.255L309.368 512.789C308.374 512.574 307.389 512.35 306.411 512.115L306.062 513.574ZM312.085 514.875C313.051 515.061 314.024 515.238 315.005 515.406L315.258 513.927C314.288 513.761 313.325 513.586 312.369 513.402L312.085 514.875ZM317.968 515.881C318.963 516.029 319.965 516.169 320.975 516.298L321.166 514.811C320.166 514.682 319.175 514.544 318.19 514.397L317.968 515.881ZM324.025 516.658C325.049 516.769 326.081 516.869 327.12 516.96L327.25 515.466C326.221 515.376 325.2 515.276 324.186 515.167L324.025 516.658ZM330.07 517.189C331.058 517.257 332.052 517.315 333.053 517.365L333.127 515.867C332.136 515.818 331.151 515.76 330.173 515.693L330.07 517.189ZM336.075 517.488C337.09 517.52 338.111 517.542 339.138 517.556L339.158 516.056C338.139 516.043 337.128 516.02 336.122 515.988L336.075 517.488ZM342.242 517.57C343.242 517.566 344.248 517.553 345.261 517.531L345.229 516.031C344.225 516.053 343.227 516.066 342.235 516.07L342.242 517.57ZM348.221 517.444C349.214 517.407 350.213 517.362 351.218 517.309L351.138 515.811C350.141 515.864 349.15 515.909 348.165 515.945L348.221 517.444ZM354.251 517.124C355.268 517.054 356.292 516.975 357.321 516.889L357.195 515.394C356.173 515.48 355.158 515.558 354.148 515.627L354.251 517.124ZM360.428 516.603C361.409 516.506 362.396 516.401 363.388 516.288L363.219 514.798C362.233 514.909 361.254 515.014 360.28 515.111L360.428 516.603ZM366.325 515.934C367.31 515.809 368.3 515.676 369.296 515.536L369.087 514.051C368.098 514.19 367.114 514.322 366.136 514.446L366.325 515.934ZM372.299 515.093C373.305 514.938 374.317 514.776 375.335 514.605L375.087 513.126C374.076 513.295 373.07 513.457 372.07 513.611L372.299 515.093ZM378.404 514.072C378.918 513.979 379.434 513.885 379.951 513.788L379.676 512.314C379.162 512.41 378.649 512.504 378.138 512.596L378.404 514.072ZM379.951 513.788C380.449 513.695 380.946 513.602 381.443 513.508L381.164 512.034C380.669 512.128 380.173 512.221 379.676 512.314L379.951 513.788ZM384.414 512.938C385.402 512.746 386.387 512.553 387.369 512.357L387.076 510.886C386.096 511.081 385.113 511.274 384.128 511.466L384.414 512.938ZM390.309 511.764C391.286 511.565 392.261 511.363 393.233 511.16L392.926 509.692C391.956 509.895 390.984 510.096 390.009 510.295L390.309 511.764ZM396.141 510.544C397.108 510.337 398.072 510.128 399.034 509.917L398.712 508.452C397.753 508.662 396.791 508.871 395.827 509.077L396.141 510.544ZM401.993 509.259C402.977 509.038 403.958 508.815 404.937 508.59L404.6 507.128C403.624 507.353 402.646 507.575 401.664 507.796L401.993 509.259ZM407.863 507.909C408.836 507.68 409.806 507.449 410.773 507.216L410.422 505.757C409.457 505.99 408.49 506.22 407.519 506.449L407.863 507.909ZM413.666 506.511C414.628 506.274 415.587 506.035 416.543 505.794L416.176 504.34C415.223 504.58 414.266 504.818 413.307 505.054L413.666 506.511ZM419.458 505.052C420.436 504.8 421.411 504.546 422.383 504.29L422.001 502.839C421.032 503.095 420.06 503.348 419.084 503.599L419.458 505.052ZM425.291 503.516C426.257 503.256 427.22 502.994 428.18 502.73L427.783 501.284C426.825 501.547 425.864 501.809 424.901 502.068L425.291 503.516ZM431.052 501.932C432.007 501.664 432.958 501.394 433.907 501.122L433.493 499.681C432.547 499.952 431.599 500.221 430.647 500.488L431.052 501.932ZM436.787 500.288C437.757 500.004 438.723 499.718 439.687 499.43L439.257 497.993C438.296 498.28 437.332 498.565 436.365 498.848L436.787 500.288ZM442.568 498.559C443.525 498.267 444.48 497.973 445.431 497.676L444.984 496.244C444.036 496.54 443.085 496.833 442.13 497.125L442.568 498.559ZM448.275 496.781C449.219 496.481 450.161 496.178 451.1 495.874L450.637 494.447C449.701 494.751 448.762 495.052 447.82 495.352L448.275 496.781ZM453.952 494.939C454.911 494.622 455.867 494.302 456.819 493.981L456.339 492.559C455.389 492.88 454.436 493.199 453.48 493.515L453.952 494.939ZM459.667 493.009C460.613 492.683 461.555 492.355 462.495 492.025L461.997 490.61C461.061 490.939 460.121 491.266 459.178 491.591L459.667 493.009ZM465.303 491.029C466.236 490.695 467.165 490.358 468.091 490.02L467.576 488.611C466.653 488.948 465.727 489.283 464.797 489.617L465.303 491.029ZM470.92 488.976C471.866 488.624 472.808 488.269 473.747 487.913L473.214 486.511C472.278 486.866 471.339 487.219 470.396 487.571L470.92 488.976ZM476.553 486.836C477.484 486.475 478.413 486.112 479.338 485.747L478.787 484.352C477.865 484.716 476.94 485.078 476.011 485.438L476.553 486.836ZM482.101 484.645C483.022 484.275 483.94 483.902 484.854 483.527L484.284 482.14C483.374 482.513 482.459 482.885 481.541 483.254L482.101 484.645ZM487.653 482.368C488.582 481.979 489.508 481.589 490.43 481.196L489.842 479.816C488.923 480.207 488.001 480.597 487.074 480.984L487.653 482.368ZM493.185 480.01C494.1 479.613 495.01 479.214 495.918 478.812L495.31 477.441C494.406 477.841 493.499 478.239 492.587 478.635L493.185 480.01ZM498.628 477.601C499.544 477.188 500.456 476.773 501.364 476.355L500.738 474.992C499.833 475.408 498.924 475.822 498.011 476.234L498.628 477.601ZM504.105 475.084C505.015 474.658 505.921 474.229 506.823 473.799L506.176 472.445C505.278 472.874 504.375 473.301 503.469 473.725L504.105 475.084ZM509.516 472.501C510.41 472.066 511.3 471.629 512.186 471.19L511.52 469.846C510.638 470.283 509.751 470.719 508.86 471.152L509.516 472.501ZM514.856 469.855C515.759 469.399 516.657 468.94 517.552 468.48L516.866 467.146C515.974 467.605 515.079 468.061 514.18 468.516L514.856 469.855ZM520.224 467.092C521.11 466.627 521.992 466.16 522.87 465.691L522.163 464.368C521.288 464.836 520.41 465.301 519.527 465.764L520.224 467.092ZM525.492 464.277C526.364 463.802 527.232 463.325 528.097 462.845L527.369 461.533C526.508 462.011 525.643 462.486 524.774 462.96L525.492 464.277ZM530.74 461.365C531.616 460.869 532.488 460.371 533.356 459.871L532.607 458.571C531.743 459.069 530.874 459.565 530.001 460.059L530.74 461.365ZM535.946 458.364C536.805 457.859 537.66 457.353 538.51 456.844L537.739 455.557C536.893 456.063 536.042 456.568 535.186 457.07L535.946 458.364ZM541.052 455.307C541.917 454.78 542.776 454.25 543.632 453.718L542.839 452.444C541.988 452.974 541.132 453.501 540.271 454.027L541.052 455.307ZM546.183 452.116C547.029 451.579 547.87 451.041 548.707 450.5L547.892 449.24C547.06 449.779 546.222 450.315 545.38 450.849L546.183 452.116ZM551.203 448.871C552.034 448.323 552.86 447.773 553.681 447.221L552.845 445.976C552.027 446.526 551.204 447.073 550.377 447.618L551.203 448.871ZM556.187 445.521C557.017 444.952 557.842 444.381 558.663 443.808L557.803 442.578C556.987 443.149 556.165 443.717 555.339 444.284L556.187 445.521ZM561.109 442.081C561.919 441.503 562.725 440.923 563.526 440.341L562.644 439.128C561.847 439.707 561.045 440.284 560.238 440.859L561.109 442.081ZM565.937 438.57C566.749 437.968 567.556 437.363 568.357 436.757L567.452 435.561C566.654 436.164 565.852 436.766 565.044 437.365L565.937 438.57ZM570.746 434.93C571.536 434.319 572.322 433.706 573.103 433.091L572.174 431.913C571.398 432.525 570.616 433.135 569.829 433.743L570.746 434.93ZM575.429 431.238C576.214 430.607 576.993 429.973 577.767 429.338L576.815 428.178C576.045 428.811 575.27 429.441 574.489 430.07L575.429 431.238ZM580.089 427.41C580.857 426.766 581.62 426.119 582.378 425.47L581.402 424.331C580.648 424.977 579.889 425.62 579.125 426.261L580.089 427.41ZM584.633 423.517C585.383 422.86 586.128 422.202 586.867 421.541L585.867 420.423C585.132 421.08 584.392 421.735 583.646 422.388L584.633 423.517ZM589.112 419.512C589.854 418.834 590.591 418.153 591.322 417.471L590.298 416.375C589.571 417.053 588.838 417.73 588.1 418.405L589.112 419.512ZM593.498 415.416C594.217 414.729 594.931 414.04 595.639 413.349L594.591 412.275C593.887 412.963 593.177 413.648 592.462 414.331L593.498 415.416ZM597.784 411.23C598.497 410.518 599.204 409.804 599.905 409.087L598.833 408.038C598.136 408.75 597.433 409.461 596.724 410.169L597.784 411.23ZM601.99 406.931C602.679 406.21 603.362 405.487 604.038 404.763L602.942 403.739C602.269 404.46 601.59 405.178 600.905 405.895L601.99 406.931ZM606.071 402.56C606.751 401.814 607.425 401.066 608.092 400.316L606.971 399.319C606.308 400.064 605.638 400.808 604.963 401.549L606.071 402.56ZM610.075 398.059C610.73 397.305 611.378 396.549 612.02 395.791L610.876 394.821C610.238 395.575 609.593 396.326 608.943 397.076L610.075 398.059ZM613.936 393.499C614.579 392.72 615.216 391.939 615.846 391.156L614.677 390.216C614.051 390.994 613.419 391.77 612.779 392.544L613.936 393.499ZM617.716 388.801C618.332 388.014 618.942 387.225 619.546 386.434L618.353 385.524C617.754 386.31 617.148 387.094 616.535 387.876L617.716 388.801ZM621.339 384.052C621.941 383.241 622.537 382.427 623.125 381.612L621.909 380.734C621.325 381.544 620.733 382.352 620.135 383.158L621.339 384.052ZM624.87 379.161C625.445 378.342 626.013 377.521 626.574 376.699L625.334 375.854C624.777 376.671 624.213 377.486 623.642 378.299L624.87 379.161ZM628.236 374.224C628.794 373.382 629.344 372.538 629.888 371.692L628.625 370.881C628.086 371.721 627.539 372.559 626.986 373.396L628.236 374.224ZM631.496 369.148C632.024 368.299 632.546 367.447 633.06 366.594L631.776 365.82C631.265 366.667 630.747 367.512 630.222 368.356L631.496 369.148ZM634.583 364.027C635.092 363.156 635.594 362.282 636.088 361.407L634.781 360.67C634.291 361.539 633.793 362.406 633.288 363.271L634.583 364.027ZM637.547 358.777C638.026 357.898 638.497 357.018 638.961 356.136L637.634 355.438C637.173 356.313 636.705 357.186 636.23 358.058L637.547 358.777ZM640.334 353.48C640.791 352.58 641.239 351.68 641.68 350.777L640.332 350.119C639.895 351.014 639.45 351.908 638.997 352.801L640.334 353.48ZM642.979 348.066C643.405 347.161 643.822 346.254 644.232 345.346L642.865 344.729C642.458 345.63 642.044 346.53 641.622 347.428L642.979 348.066ZM645.444 342.604C645.844 341.68 646.236 340.754 646.62 339.827L645.234 339.253C644.853 340.173 644.464 341.091 644.067 342.008L645.444 342.604ZM647.748 337.043C648.116 336.113 648.476 335.182 648.828 334.25L647.425 333.72C647.076 334.644 646.718 335.568 646.353 336.49L647.748 337.043ZM649.867 331.431C650.207 330.485 650.539 329.537 650.863 328.588L649.444 328.104C649.122 329.045 648.793 329.985 648.456 330.923L649.867 331.431ZM651.81 325.739C652.118 324.788 652.417 323.836 652.708 322.882L651.274 322.444C650.985 323.39 650.688 324.334 650.383 325.277L651.81 325.739ZM653.564 319.996C653.841 319.031 654.11 318.065 654.371 317.098L652.923 316.707C652.664 317.667 652.397 318.625 652.122 319.582L653.564 319.996ZM655.128 314.193C655.372 313.224 655.608 312.253 655.835 311.281L654.375 310.94C654.149 311.903 653.916 312.866 653.673 313.827L655.128 314.193ZM656.497 308.343C656.709 307.363 656.913 306.381 657.108 305.399L655.637 305.107C655.443 306.081 655.241 307.054 655.031 308.026L656.497 308.343ZM657.667 302.451C657.846 301.465 658.016 300.479 658.177 299.492L656.697 299.25C656.537 300.228 656.368 301.207 656.191 302.184L657.667 302.451ZM658.637 296.519C658.782 295.527 658.918 294.535 659.045 293.542L657.557 293.351C657.431 294.335 657.296 295.319 657.153 296.302L658.637 296.519ZM659.402 290.562C659.512 289.565 659.614 288.568 659.707 287.571L658.214 287.432C658.121 288.42 658.02 289.408 657.911 290.396L659.402 290.562ZM659.961 284.576C660.036 283.577 660.104 282.577 660.162 281.578L658.665 281.49C658.607 282.481 658.54 283.472 658.465 284.462L659.961 284.576ZM660.312 278.578C660.353 277.577 660.385 276.576 660.409 275.574L658.909 275.539C658.886 276.532 658.854 277.524 658.813 278.516L660.312 278.578ZM660.454 272.57C660.461 271.568 660.458 270.566 660.447 269.564L658.947 269.581C658.958 270.574 658.96 271.567 658.954 272.56L660.454 272.57ZM660.388 266.56C660.359 265.56 660.322 264.559 660.276 263.559L658.778 263.628C658.823 264.619 658.86 265.611 658.888 266.603L660.388 266.56ZM660.113 260.558C660.05 259.558 659.978 258.558 659.897 257.558L658.402 257.678C658.482 258.669 658.553 259.661 658.616 260.653L660.113 260.558ZM659.63 254.568C659.533 253.573 659.427 252.577 659.312 251.582L657.822 251.754C657.935 252.741 658.041 253.727 658.137 254.714L659.63 254.568ZM658.942 248.598C658.81 247.605 658.669 246.612 658.52 245.619L657.037 245.842C657.185 246.826 657.324 247.81 657.455 248.795L658.942 248.598ZM658.049 242.658C657.884 241.672 657.71 240.685 657.528 239.7L656.053 239.973C656.234 240.95 656.406 241.928 656.57 242.906L658.049 242.658ZM656.955 236.745C656.855 236.253 656.753 235.76 656.649 235.269L655.182 235.579C655.285 236.067 655.386 236.555 655.485 237.043L656.955 236.745ZM656.649 235.269C656.543 234.768 656.435 234.27 656.324 233.774L654.86 234.101C654.97 234.591 655.077 235.084 655.182 235.579L656.649 235.269ZM655.632 230.826C655.392 229.853 655.143 228.888 654.884 227.933L653.436 228.325C653.692 229.269 653.939 230.223 654.176 231.185L655.632 230.826ZM654.061 225.024C653.773 224.052 653.477 223.091 653.17 222.139L651.742 222.598C652.045 223.539 652.338 224.489 652.622 225.449L654.061 225.024ZM652.224 219.311C651.889 218.348 651.544 217.395 651.189 216.452L649.785 216.98C650.135 217.911 650.476 218.853 650.807 219.804L652.224 219.311ZM650.096 213.65C649.719 212.716 649.332 211.793 648.935 210.879L647.559 211.476C647.951 212.378 648.333 213.29 648.706 214.212L650.096 213.65ZM647.695 208.117C647.272 207.206 646.839 206.306 646.398 205.416L645.054 206.082C645.49 206.961 645.917 207.85 646.334 208.749L647.695 208.117ZM645.018 202.722C644.547 201.83 644.066 200.948 643.576 200.077L642.268 200.812C642.752 201.672 643.227 202.543 643.692 203.423L645.018 202.722ZM642.068 197.477C641.549 196.607 641.02 195.749 640.483 194.9L639.216 195.703C639.746 196.54 640.268 197.388 640.78 198.246L642.068 197.477ZM638.844 192.387C638.28 191.546 637.707 190.716 637.126 189.897L635.902 190.765C636.476 191.574 637.042 192.393 637.599 193.223L638.844 192.387ZM635.351 187.465C634.747 186.658 634.134 185.863 633.513 185.078L632.337 186.008C632.949 186.783 633.554 187.568 634.151 188.364L635.351 187.465ZM631.61 182.735C630.966 181.964 630.315 181.203 629.656 180.453L628.529 181.443C629.18 182.183 629.823 182.934 630.458 183.696L631.61 182.735ZM627.632 178.207C626.95 177.469 626.261 176.742 625.564 176.026L624.489 177.071C625.177 177.779 625.857 178.497 626.531 179.225L627.632 178.207ZM623.433 173.887C622.714 173.183 621.989 172.49 621.256 171.807L620.233 172.904C620.957 173.578 621.674 174.263 622.384 174.958L623.433 173.887ZM619.028 169.779C618.275 169.11 617.516 168.451 616.751 167.804L615.782 168.948C616.538 169.588 617.288 170.239 618.032 170.9L619.028 169.779ZM614.434 165.886C613.65 165.252 612.861 164.629 612.066 164.017L611.15 165.204C611.936 165.81 612.716 166.426 613.491 167.052L614.434 165.886ZM609.667 162.208C608.855 161.61 608.038 161.023 607.217 160.445L606.354 161.672C607.166 162.244 607.974 162.825 608.777 163.416L609.667 162.208ZM604.74 158.742C603.904 158.181 603.063 157.629 602.219 157.087L601.409 158.349C602.244 158.886 603.076 159.432 603.903 159.987L604.74 158.742ZM599.672 155.488C598.814 154.962 597.953 154.445 597.089 153.938L596.33 155.232C597.186 155.734 598.038 156.245 598.887 156.766L599.672 155.488ZM594.479 152.441C593.602 151.949 592.723 151.467 591.841 150.994L591.132 152.316C592.006 152.784 592.877 153.262 593.745 153.749L594.479 152.441ZM589.175 149.595C588.281 149.137 587.385 148.688 586.488 148.249L585.828 149.595C586.717 150.031 587.605 150.476 588.49 150.93L589.175 149.595ZM583.771 146.946C582.863 146.52 581.953 146.104 581.043 145.696L580.43 147.065C581.332 147.469 582.234 147.882 583.135 148.304L583.771 146.946ZM578.281 144.486C577.359 144.092 576.437 143.706 575.516 143.329L574.948 144.718C575.862 145.091 576.776 145.474 577.69 145.865L578.281 144.486ZM572.713 142.209C571.779 141.844 570.846 141.488 569.915 141.141L569.391 142.547C570.315 142.891 571.241 143.244 572.167 143.606L572.713 142.209ZM567.077 140.108C566.133 139.772 565.19 139.445 564.25 139.126L563.768 140.546C564.701 140.863 565.637 141.188 566.575 141.521L567.077 140.108ZM561.383 138.176C560.429 137.868 559.478 137.568 558.53 137.277L558.089 138.71C559.03 139 559.974 139.298 560.922 139.604L561.383 138.176ZM555.636 136.408C554.674 136.127 553.716 135.854 552.764 135.589L552.362 137.034C553.308 137.297 554.259 137.568 555.215 137.848L555.636 136.408ZM549.844 134.797C548.873 134.541 547.908 134.293 546.95 134.053L546.586 135.509C547.538 135.747 548.497 135.993 549.461 136.248L549.844 134.797ZM544.013 133.339C543.033 133.106 542.06 132.882 541.095 132.667L540.768 134.131C541.726 134.345 542.693 134.567 543.668 134.798L544.013 133.339ZM538.151 132.027C537.159 131.818 536.178 131.617 535.207 131.424L534.915 132.896C535.88 133.087 536.856 133.287 537.842 133.495L538.151 132.027ZM532.268 130.859C531.263 130.672 530.271 130.493 529.294 130.323L529.036 131.8C530.008 131.97 530.994 132.147 531.993 132.333L532.268 130.859ZM526.35 129.827C525.339 129.663 524.346 129.507 523.371 129.36L523.147 130.843C524.116 130.989 525.104 131.144 526.109 131.307L526.35 129.827ZM520.388 128.926C519.378 128.785 518.391 128.653 517.428 128.53L517.237 130.018C518.194 130.141 519.176 130.272 520.18 130.412L520.388 128.926ZM514.451 128.164C513.415 128.042 512.412 127.93 511.446 127.827L511.287 129.319C512.248 129.421 513.245 129.532 514.276 129.653L514.451 128.164ZM508.45 127.524C507.955 127.477 507.471 127.431 507 127.389L506.864 128.883C507.333 128.925 507.814 128.97 508.307 129.017L508.45 127.524Z" fill="url(#paint1_linear_1033_295)"/>
<circle cx="111.339" cy="80.8475" r="61.5254" fill="#FFDD76"/>
<circle opacity="0.56" cx="111.339" cy="80.8475" r="34.0678" fill="#EECB64"/>
<path d="M97.2404 127.003C97.3041 126.945 97.3659 126.906 97.4256 126.885C97.4823 126.863 97.5488 126.863 97.6249 126.884C97.6923 126.903 97.7597 126.944 97.8272 127.007C97.891 127.073 97.9652 127.146 98.0499 127.227C98.1317 127.307 98.2297 127.385 98.3441 127.462C98.4576 127.541 98.5949 127.603 98.756 127.649C99.0342 127.727 99.259 127.726 99.4305 127.645C99.5983 127.566 99.7107 127.425 99.7677 127.223C99.804 127.094 99.7932 126.976 99.7351 126.868C99.6771 126.759 99.5909 126.656 99.4764 126.557C99.3591 126.458 99.2229 126.358 99.0679 126.257C98.9092 126.159 98.7496 126.052 98.5891 125.937C98.4278 125.825 98.2743 125.703 98.1284 125.57C97.9795 125.436 97.8578 125.285 97.7632 125.116C97.6657 124.946 97.6028 124.755 97.5745 124.541C97.5454 124.331 97.5684 124.092 97.6436 123.826C97.727 123.53 97.8563 123.268 98.0315 123.039C98.2067 122.81 98.4197 122.627 98.6704 122.489C98.9174 122.353 99.2 122.27 99.5184 122.24C99.8331 122.211 100.172 122.249 100.535 122.351C100.734 122.407 100.932 122.485 101.128 122.585C101.322 122.684 101.505 122.797 101.677 122.925C101.849 123.055 102.006 123.196 102.146 123.346C102.287 123.497 102.403 123.653 102.493 123.814L101.858 124.384C101.809 124.424 101.752 124.452 101.688 124.469C101.619 124.487 101.551 124.487 101.484 124.468C101.396 124.443 101.316 124.391 101.244 124.31C101.169 124.229 101.085 124.139 100.993 124.04C100.898 123.941 100.785 123.842 100.654 123.745C100.523 123.649 100.358 123.572 100.159 123.516C99.8896 123.44 99.6637 123.439 99.4813 123.514C99.2981 123.592 99.1701 123.76 99.0974 124.018C99.0553 124.167 99.062 124.3 99.1176 124.417C99.1731 124.534 99.2596 124.642 99.3769 124.742C99.4914 124.84 99.6269 124.937 99.7835 125.032C99.9402 125.127 100.1 125.227 100.263 125.333C100.425 125.442 100.579 125.561 100.726 125.691C100.872 125.824 100.993 125.977 101.09 126.15C101.183 126.324 101.242 126.524 101.267 126.75C101.291 126.978 101.261 127.241 101.177 127.54C101.109 127.78 100.995 128.001 100.834 128.202C100.673 128.403 100.473 128.566 100.235 128.692C99.9974 128.818 99.7275 128.895 99.4254 128.924C99.1225 128.955 98.7953 128.921 98.4439 128.822C98.2477 128.767 98.0619 128.697 97.8865 128.613C97.7073 128.531 97.543 128.435 97.3934 128.327C97.243 128.221 97.108 128.106 96.9885 127.98C96.8652 127.857 96.7613 127.726 96.6769 127.589L97.2404 127.003Z" fill="#BB932C"/>
<path d="M90.1927 124.32L90.9122 122.946L89.0601 121.976L89.5891 120.965L91.4412 121.935L92.1755 120.531L89.7573 119.266L90.3075 118.214L94.1007 120.199L91.0175 126.091L87.2243 124.106L87.7745 123.055L90.1927 124.32Z" fill="#BB932C"/>
<path d="M82.3642 113.975L83.1479 113.024L86.2404 115.572L82.0114 120.704L80.8208 119.723L84.2662 115.542L82.3642 113.975Z" fill="#BB932C"/>
<path d="M73.2465 106.689C73.6299 106.399 74.0371 106.196 74.4681 106.08C74.8973 105.961 75.3252 105.929 75.7521 105.984C76.1765 106.041 76.5863 106.187 76.9816 106.422C77.3751 106.654 77.7279 106.977 78.04 107.39C78.3521 107.802 78.5675 108.231 78.6862 108.675C78.8049 109.119 78.8347 109.555 78.7756 109.981C78.7123 110.406 78.5661 110.811 78.337 111.194C78.1061 111.575 77.799 111.91 77.4156 112.2C77.0322 112.49 76.6259 112.694 76.1968 112.813C75.7658 112.929 75.3381 112.959 74.9137 112.902C74.4875 112.843 74.0767 112.696 73.6814 112.461C73.2861 112.226 72.9324 111.902 72.6203 111.49C72.3082 111.077 72.0949 110.649 71.9805 110.205C71.8618 109.761 71.8329 109.327 71.8938 108.903C71.9548 108.479 72.1006 108.077 72.3315 107.696C72.5606 107.313 72.8656 106.978 73.2465 106.689ZM74.1993 107.949C73.9373 108.147 73.7276 108.359 73.5703 108.585C73.4106 108.813 73.3066 109.046 73.2583 109.284C73.2082 109.521 73.214 109.761 73.2759 110.004C73.3378 110.247 73.4577 110.486 73.6358 110.722C73.8157 110.959 74.0152 111.142 74.2342 111.27C74.4513 111.396 74.6814 111.468 74.9243 111.487C75.1653 111.503 75.4171 111.465 75.6796 111.373C75.9397 111.283 76.2008 111.139 76.4628 110.941C76.7273 110.741 76.9394 110.527 77.0991 110.299C77.2564 110.073 77.3601 109.842 77.4103 109.606C77.4586 109.367 77.4518 109.126 77.3899 108.883C77.3238 108.639 77.2008 108.398 77.0208 108.161C76.8428 107.925 76.6464 107.744 76.4316 107.616C76.2145 107.491 75.9853 107.42 75.7443 107.404C75.5014 107.385 75.2499 107.421 74.9898 107.511C74.7273 107.603 74.4638 107.749 74.1993 107.949Z" fill="#BB932C"/>
<path d="M67 94.7068L66.9366 94.4686C66.8779 94.2481 66.7666 94.1077 66.6025 94.0475L64.1181 93.1595C63.9837 93.104 63.8829 93.0332 63.816 92.9471C63.7452 92.8589 63.6903 92.7413 63.6512 92.5942L63.3061 91.2975L66.411 92.5115C66.6264 92.599 66.7945 92.7102 66.9154 92.8449C66.9268 92.7222 66.9571 92.6055 67.0064 92.4948C67.0556 92.384 67.1285 92.2733 67.225 92.1627L69.6901 89.4285L70.0446 90.7605C70.0672 90.8458 70.0809 90.9208 70.0856 90.9857C70.0895 91.0477 70.0855 91.1038 70.0738 91.1542C70.062 91.2045 70.0442 91.2502 70.0205 91.2911C69.9938 91.3329 69.9623 91.3743 69.926 91.4155L68.0772 93.4661C68.009 93.5409 67.9696 93.6238 67.9592 93.7147C67.9451 93.8035 67.9564 93.917 67.9932 94.0552L68.0894 94.4169L70.824 93.6891L71.2207 95.1799L64.7945 96.8901L64.3977 95.3994L67 94.7068Z" fill="#BB932C"/>
<path d="M69.0557 83.5822L69.1585 85.1306L62.5232 85.5713L62.4204 84.0229L69.0557 83.5822Z" fill="#BB932C"/>
<path d="M63.113 72.216L69.7031 73.1053L69.5957 73.9014C69.5798 74.019 69.5483 74.1161 69.5011 74.1926C69.4514 74.2657 69.3744 74.3352 69.2704 74.4009L64.9205 76.9779C65.0397 76.9817 65.1553 76.9896 65.2673 77.0017C65.3766 77.0103 65.4796 77.0211 65.5761 77.0341L69.1086 77.5108L68.9267 78.8587L62.3366 77.9694L62.4452 77.1643C62.4542 77.0979 62.4647 77.0426 62.4768 76.9981C62.489 76.9537 62.5065 76.9147 62.5295 76.8809C62.5495 76.8468 62.5768 76.8151 62.6114 76.786C62.646 76.7569 62.6918 76.7247 62.7488 76.6894L67.1295 74.089C67.0008 74.087 66.8773 74.0811 66.7588 74.0712C66.6374 74.061 66.5239 74.0487 66.4184 74.0345L62.9311 73.5639L63.113 72.216Z" fill="#BB932C"/>
<path d="M68.9122 63.9379L69.8068 61.7495L72.405 62.8116C72.507 63.2215 72.537 63.6265 72.495 64.0268C72.4541 64.4243 72.3542 64.8174 72.1953 65.2061C71.9881 65.713 71.7204 66.1427 71.3923 66.4951C71.0625 66.8435 70.6977 67.1085 70.298 67.2903C69.8955 67.4709 69.4699 67.5632 69.0212 67.5671C68.5697 67.5699 68.1187 67.4792 67.668 67.295C67.2089 67.1073 66.8189 66.8592 66.4981 66.5505C66.1744 66.2407 65.9307 65.8879 65.767 65.4923C65.6044 65.0939 65.5275 64.663 65.536 64.1997C65.5458 63.7336 65.652 63.2528 65.8546 62.757C65.9594 62.5007 66.0789 62.2686 66.2133 62.0605C66.3477 61.8525 66.49 61.6691 66.6404 61.5103C66.7919 61.3487 66.9506 61.2098 67.1165 61.0935C67.2823 60.9772 67.4498 60.8813 67.6187 60.8057L68.0789 61.4771C68.151 61.5822 68.1771 61.6914 68.157 61.8048C68.1381 61.9154 68.0678 62.0149 67.9462 62.1033C67.8326 62.1883 67.7311 62.2717 67.6418 62.3535C67.5508 62.4314 67.4685 62.5161 67.3949 62.6076C67.3213 62.6992 67.2539 62.7998 67.1926 62.9095C67.1313 63.0193 67.0713 63.1459 67.0126 63.2896C66.9032 63.5572 66.8527 63.8175 66.8609 64.0707C66.8664 64.3228 66.9239 64.56 67.0335 64.7823C67.1443 65.0018 67.3041 65.2019 67.5129 65.3826C67.719 65.5621 67.9698 65.7124 68.2656 65.8332C68.5923 65.9668 68.9008 66.0403 69.1911 66.0538C69.4815 66.0673 69.7473 66.0281 69.9887 65.9361C70.2313 65.8413 70.4456 65.6988 70.6319 65.5087C70.8164 65.3146 70.9657 65.0781 71.0796 64.7993C71.1499 64.6275 71.1963 64.4657 71.2189 64.3138C71.2427 64.1592 71.2535 64.0042 71.2512 63.8488L70.3176 63.4671L70.0689 64.0755C70.032 64.1656 69.9793 64.2262 69.9107 64.2574C69.8421 64.2885 69.7712 64.2891 69.698 64.2591L68.9122 63.9379Z" fill="#BB932C"/>
<path d="M78.1587 44.9557L82.9066 49.6118L81.8201 50.7197L79.8127 48.7512L77.9209 50.6804L79.9283 52.6489L78.8418 53.7568L74.0938 49.1008L75.1804 47.9929L77.1649 49.939L79.0567 48.0098L77.0722 46.0637L78.1587 44.9557Z" fill="#BB932C"/>
<path d="M90.7035 40.185C90.9485 40.5987 91.1044 41.0262 91.1712 41.4676C91.2406 41.9074 91.224 42.3362 91.1214 42.7541C91.0172 43.1694 90.826 43.5602 90.5478 43.9265C90.2722 44.2912 89.9119 44.6053 89.4668 44.8688C89.0217 45.1324 88.5717 45.298 88.1168 45.3658C87.6619 45.4336 87.226 45.4141 86.8091 45.3073C86.3934 45.1963 86.0081 45.0054 85.6532 44.7346C85.301 44.4622 85.0025 44.1192 84.7575 43.7055C84.5126 43.2918 84.3554 42.8651 84.286 42.4253C84.2191 41.984 84.2378 41.5556 84.342 41.1404C84.4488 40.7235 84.6413 40.332 84.9195 39.9657C85.1977 39.5994 85.5594 39.2845 86.0045 39.021C86.4496 38.7575 86.899 38.5939 87.3529 38.5303C87.8078 38.4625 88.2424 38.4828 88.6566 38.5911C89.0708 38.6995 89.454 38.8898 89.8062 39.1622C90.1611 39.433 90.4602 39.774 90.7035 40.185ZM89.3447 40.9896C89.1773 40.7068 88.9902 40.4745 88.7836 40.2928C88.5754 40.1084 88.3555 39.9787 88.1237 39.9038C87.8945 39.8273 87.6556 39.8061 87.407 39.8401C87.1585 39.8742 86.9072 39.9664 86.6532 40.1167C86.3966 40.2686 86.1923 40.4462 86.0403 40.6493C85.8909 40.8509 85.7934 41.0713 85.7476 41.3106C85.7045 41.5483 85.7137 41.8028 85.7753 42.0739C85.8353 42.3425 85.949 42.6182 86.1164 42.901C86.2854 43.1864 86.4739 43.4212 86.6821 43.6056C86.8887 43.7874 87.1066 43.9165 87.3358 43.993C87.5676 44.0679 87.8078 44.0884 88.0563 44.0543C88.306 44.0161 88.5591 43.9211 88.8157 43.7692C89.0697 43.6188 89.2721 43.4441 89.4231 43.2451C89.5725 43.0435 89.6687 42.8239 89.7118 42.5862C89.7576 42.3469 89.7505 42.093 89.6905 41.8245C89.6289 41.5533 89.5137 41.275 89.3447 40.9896Z" fill="#BB932C"/>
<path d="M98.8452 34.9825C98.8233 35.0658 98.793 35.1325 98.7544 35.1827C98.7187 35.232 98.6631 35.2684 98.5875 35.2918C98.5207 35.3125 98.4417 35.3147 98.3506 35.2984C98.2616 35.2782 98.1595 35.2573 98.0445 35.2356C97.9324 35.213 97.8075 35.2008 97.6699 35.1988C97.5314 35.194 97.3823 35.2164 97.2224 35.2659C96.9463 35.3516 96.7585 35.4751 96.6588 35.6366C96.5612 35.7943 96.5435 35.9734 96.6056 36.174C96.6453 36.3019 96.7189 36.3953 96.8264 36.4544C96.9339 36.5134 97.0625 36.5532 97.2122 36.5736C97.3648 36.5932 97.5335 36.603 97.7183 36.6031C97.9051 36.5993 98.097 36.6019 98.2941 36.6109C98.4903 36.6169 98.6858 36.6359 98.8805 36.668C99.0781 36.6991 99.2626 36.7597 99.4339 36.85C99.6081 36.9393 99.7652 37.0658 99.9052 37.2295C100.044 37.3902 100.155 37.6028 100.237 37.8673C100.328 38.1608 100.362 38.4512 100.34 38.7385C100.317 39.0258 100.238 39.2955 100.103 39.5477C99.97 39.7961 99.7781 40.0197 99.5275 40.2184C99.279 40.4134 98.9745 40.5667 98.6141 40.6785C98.4165 40.7398 98.2082 40.7821 97.9893 40.8054C97.7732 40.8278 97.558 40.8324 97.3437 40.8192C97.1284 40.8031 96.9208 40.7704 96.7207 40.7209C96.5206 40.6715 96.3386 40.6036 96.1749 40.5174L96.3973 39.6935C96.4168 39.6332 96.4493 39.5786 96.4946 39.5295C96.5419 39.4766 96.5989 39.4398 96.6658 39.4191C96.753 39.392 96.8487 39.3926 96.953 39.4208C97.0602 39.4481 97.1794 39.478 97.3106 39.5106C97.4447 39.5423 97.5929 39.5632 97.7554 39.5734C97.9178 39.5835 98.0978 39.558 98.2954 39.4967C98.5628 39.4138 98.7526 39.2912 98.8648 39.129C98.976 38.9639 98.992 38.7534 98.9127 38.4977C98.8667 38.3495 98.7886 38.2415 98.6784 38.1737C98.5682 38.106 98.4368 38.0623 98.2842 38.0427C98.1345 38.0222 97.9681 38.0149 97.7852 38.0207C97.6022 38.0264 97.4135 38.0292 97.2191 38.029C97.0238 38.0258 96.8292 38.0097 96.6354 37.9806C96.4408 37.9486 96.2558 37.8864 96.0807 37.7942C95.9076 37.6982 95.7492 37.5625 95.6057 37.3872C95.4612 37.209 95.343 36.9717 95.2511 36.6753C95.1772 36.437 95.153 36.1896 95.1786 35.9332C95.2043 35.6767 95.2826 35.431 95.4136 35.1961C95.5446 34.9611 95.729 34.7494 95.9669 34.561C96.2038 34.3697 96.4967 34.2199 96.8454 34.1118C97.0401 34.0514 97.234 34.0088 97.427 33.984C97.622 33.9554 97.8118 33.9459 97.9964 33.9555C98.18 33.9623 98.3562 33.9857 98.5247 34.0259C98.6952 34.0622 98.8534 34.1151 98.9992 34.1845L98.8452 34.9825Z" fill="#BB932C"/>
<path d="M109.434 33.1311L107.571 33.3059L108.078 38.7089L106.542 38.853L106.035 33.45L104.172 33.6248L104.057 32.407L109.32 31.9133L109.434 33.1311Z" fill="#BB932C"/>
<path d="M126.678 37.67C126.548 38.1329 126.347 38.5379 126.076 38.8851C125.808 39.2303 125.489 39.5056 125.118 39.7112C124.748 39.9138 124.336 40.0381 123.88 40.0839C123.429 40.1277 122.954 40.0796 122.456 39.9397L119.969 39.2407L121.768 32.8388L124.255 33.5378C124.753 33.6777 125.183 33.8854 125.545 34.161C125.91 34.4373 126.197 34.7583 126.407 35.124C126.618 35.4896 126.747 35.8909 126.794 36.3279C126.846 36.7628 126.807 37.2101 126.678 37.67ZM125.158 37.2428C125.247 36.9264 125.286 36.6293 125.276 36.3514C125.265 36.0735 125.207 35.8249 125.101 35.6055C124.999 35.384 124.85 35.1951 124.654 35.0388C124.458 34.8796 124.218 34.76 123.934 34.6802L122.941 34.4011L121.784 38.5182L122.777 38.7972C123.061 38.8771 123.328 38.9014 123.577 38.8703C123.827 38.8362 124.052 38.7526 124.254 38.6197C124.459 38.4846 124.639 38.3012 124.793 38.0694C124.946 37.8376 125.068 37.5621 125.158 37.2428Z" fill="#BB932C"/>
<path d="M134.237 38.7071L133.483 40.0631L135.309 41.0796L134.754 42.0766L132.928 41.0601L132.158 42.444L134.543 43.7712L133.965 44.8082L130.225 42.7263L133.458 36.9156L137.199 38.9975L136.622 40.0344L134.237 38.7071Z" fill="#BB932C"/>
<path d="M145.618 50.1028C145.362 50.3136 145.159 50.536 145.009 50.7701C144.861 51.0022 144.767 51.2373 144.726 51.4755C144.688 51.716 144.705 51.9565 144.777 52.1969C144.853 52.4377 144.985 52.6733 145.175 52.9035C145.363 53.1313 145.566 53.3046 145.786 53.4232C146.008 53.5398 146.24 53.6012 146.481 53.6073C146.725 53.6158 146.975 53.5697 147.231 53.4692C147.489 53.3667 147.747 53.2101 148.003 52.9993C148.256 52.7904 148.457 52.57 148.605 52.3379C148.755 52.1038 148.85 51.8666 148.888 51.626C148.929 51.3878 148.913 51.1485 148.841 50.9081C148.769 50.6677 148.64 50.4336 148.452 50.2057C148.262 49.9755 148.056 49.8009 147.832 49.6819C147.609 49.5652 147.377 49.5027 147.133 49.4942C146.892 49.4881 146.642 49.5363 146.383 49.6387C146.127 49.7393 145.872 49.894 145.618 50.1028ZM145.714 57.4141L144.907 56.4345C144.791 56.2935 144.706 56.1512 144.65 56.0075C144.595 55.8681 144.576 55.7096 144.596 55.5321L144.786 54.3054C144.577 54.1425 144.378 53.9459 144.188 53.7157C143.86 53.3164 143.627 52.8971 143.49 52.458C143.353 52.0189 143.305 51.5852 143.347 51.1569C143.393 50.729 143.522 50.319 143.735 49.9268C143.95 49.5369 144.243 49.1892 144.615 48.8837C144.986 48.5781 145.383 48.3572 145.807 48.2211C146.233 48.0873 146.659 48.04 147.086 48.0791C147.514 48.1207 147.93 48.2507 148.335 48.4694C148.74 48.688 149.106 48.997 149.435 49.3964C149.764 49.7957 149.994 50.2147 150.127 50.6534C150.264 51.0925 150.311 51.5251 150.267 51.951C150.224 52.377 150.094 52.7849 149.879 53.1747C149.666 53.5669 149.375 53.9149 149.006 54.2185C148.786 54.4003 148.554 54.5518 148.311 54.6731C148.072 54.7947 147.827 54.8856 147.577 54.9457C147.329 55.0081 147.077 55.0387 146.819 55.0376C146.564 55.0388 146.312 55.0078 146.063 54.9448L145.714 57.4141Z" fill="#BB932C"/>
<path d="M151.346 62.4711C151.432 62.6593 151.539 62.8129 151.667 62.9318C151.799 63.0522 151.946 63.1371 152.109 63.1865C152.272 63.2358 152.449 63.2489 152.639 63.2257C152.833 63.204 153.037 63.1445 153.25 63.0472L156.833 61.4119L157.474 62.8153L153.89 64.4507C153.52 64.6199 153.151 64.7144 152.786 64.7341C152.421 64.7566 152.076 64.7069 151.749 64.585C151.423 64.4631 151.124 64.27 150.853 64.0058C150.582 63.7415 150.355 63.4087 150.171 63.0074C149.987 62.6032 149.884 62.2122 149.862 61.8342C149.84 61.4563 149.89 61.104 150.012 60.7775C150.134 60.4509 150.322 60.1574 150.578 59.8969C150.834 59.6364 151.147 59.4215 151.518 59.2522L155.101 57.6168L155.742 59.0202L152.163 60.6537C151.949 60.751 151.77 60.8645 151.626 60.9941C151.485 61.1253 151.378 61.2692 151.306 61.426C151.236 61.5814 151.203 61.7471 151.207 61.9228C151.214 62.1001 151.261 62.2828 151.346 62.4711Z" fill="#BB932C"/>
<path d="M156.217 73.5237L157.898 72.59C158.003 72.5243 158.128 72.452 158.271 72.3732C158.418 72.2939 158.576 72.2123 158.746 72.1286C158.555 72.1171 158.377 72.1001 158.212 72.0777C158.048 72.0553 157.904 72.0321 157.782 72.008L155.89 71.7324L156.217 73.5237ZM154.158 76.3921L153.942 75.2158C153.918 75.0841 153.929 74.9724 153.974 74.8806C154.022 74.7883 154.09 74.7124 154.178 74.653L155.248 74.0583L154.793 71.5711L153.582 71.3936C153.492 71.376 153.405 71.3301 153.32 71.2558C153.239 71.1841 153.187 71.0853 153.164 70.9596L152.947 69.7744L159.952 71.11L160.236 72.6634L154.158 76.3921Z" fill="#BB932C"/>
<path d="M155.462 84.7544L154.23 84.7056L154.389 80.7015L161.034 80.9647L160.973 82.5062L155.559 82.2917L155.462 84.7544Z" fill="#BB932C"/>
<path d="M153.266 90.731L153.595 89.2144L160.094 90.6223L159.765 92.1389L153.266 90.731Z" fill="#BB932C"/>
<path d="M152.707 102.169C152.267 101.976 151.893 101.72 151.587 101.403C151.283 101.09 151.055 100.736 150.903 100.34C150.754 99.9454 150.688 99.5195 150.706 99.0622C150.726 98.6089 150.84 98.1454 151.048 97.6718L152.086 95.3066L158.175 97.9804L157.136 100.346C156.928 100.819 156.663 101.216 156.339 101.536C156.015 101.859 155.657 102.099 155.266 102.256C154.874 102.413 154.459 102.485 154.02 102.471C153.582 102.462 153.144 102.361 152.707 102.169ZM153.342 100.723C153.643 100.855 153.931 100.935 154.208 100.964C154.485 100.992 154.739 100.969 154.971 100.895C155.204 100.825 155.412 100.704 155.594 100.531C155.779 100.36 155.931 100.139 156.05 99.8685L156.465 98.9241L152.549 97.2045L152.134 98.149C152.016 98.4192 151.954 98.6798 151.95 98.9307C151.949 99.1828 152.001 99.418 152.104 99.6362C152.209 99.8585 152.366 100.062 152.574 100.246C152.782 100.431 153.038 100.59 153.342 100.723Z" fill="#BB932C"/>
<path d="M147.086 109.332L148.901 109.963C149.021 109.998 149.157 110.043 149.312 110.098C149.468 110.154 149.635 110.218 149.81 110.289C149.692 110.139 149.586 109.995 149.493 109.857C149.4 109.719 149.322 109.597 149.258 109.49L148.204 107.894L147.086 109.332ZM143.574 109.706L144.308 108.762C144.391 108.656 144.481 108.59 144.579 108.562C144.68 108.536 144.782 108.537 144.885 108.563L146.041 108.965L147.594 106.969L146.92 105.947C146.873 105.869 146.849 105.773 146.848 105.66C146.847 105.552 146.886 105.447 146.965 105.346L147.704 104.395L151.373 110.51L150.404 111.756L143.574 109.706Z" fill="#BB932C"/>
<path d="M137.854 119.139C137.558 118.759 137.351 118.358 137.232 117.933C137.113 117.513 137.08 117.093 137.134 116.673C137.19 116.255 137.334 115.849 137.567 115.455C137.8 115.065 138.12 114.711 138.528 114.393L140.564 112.804L144.655 118.047L142.618 119.636C142.21 119.954 141.788 120.177 141.352 120.305C140.913 120.436 140.484 120.477 140.065 120.429C139.646 120.382 139.246 120.248 138.866 120.028C138.485 119.812 138.148 119.515 137.854 119.139ZM139.099 118.167C139.301 118.426 139.517 118.634 139.747 118.79C139.977 118.947 140.212 119.047 140.451 119.092C140.69 119.141 140.931 119.133 141.173 119.067C141.417 119.004 141.655 118.882 141.888 118.7L142.701 118.066L140.071 114.694L139.258 115.328C139.025 115.51 138.847 115.71 138.725 115.929C138.604 116.151 138.538 116.382 138.525 116.623C138.512 116.869 138.554 117.122 138.649 117.383C138.745 117.644 138.895 117.906 139.099 118.167Z" fill="#BB932C"/>
<path d="M132.539 124.613L131.894 123.201L129.992 124.07L129.518 123.032L131.419 122.164L130.761 120.723L128.279 121.858L127.785 120.778L131.679 118.999L134.443 125.047L130.549 126.827L130.056 125.747L132.539 124.613Z" fill="#BB932C"/>
<path d="M119.152 73.8489C119.615 73.8489 119.989 74.2136 119.989 74.6542C119.989 75.105 119.621 75.4697 119.152 75.4697C118.678 75.4697 118.304 75.105 118.304 74.6542C118.304 74.2085 118.678 73.8489 119.152 73.8489ZM111.35 68.1356C111.945 68.1356 112.419 68.5965 112.419 69.1638C112.419 69.7361 111.94 70.192 111.35 70.192C110.765 70.192 110.285 69.7361 110.285 69.1638C110.28 68.5965 110.765 68.1356 111.35 68.1356ZM103.526 73.8489C103.985 73.8489 104.369 74.2136 104.369 74.6542C104.369 75.105 103.985 75.4697 103.526 75.4697C103.057 75.4697 102.678 75.105 102.678 74.6542C102.678 74.2085 103.057 73.8489 103.526 73.8489ZM96.5933 74.9227C96.5933 74.482 96.9726 74.1173 97.4414 74.1173C97.9051 74.1173 98.2844 74.482 98.2844 74.9227C98.2844 75.3735 97.9051 75.7381 97.4414 75.7381C96.9673 75.7381 96.5933 75.3735 96.5933 74.9227ZM119.958 90.067C119.763 90.5026 119.542 90.5938 119.094 90.4368C118.493 90.2139 115.585 89.0844 111.265 89.049C106.945 89.0844 104.037 90.1886 103.431 90.4114C102.989 90.5583 102.768 90.5077 102.583 90.067C102.33 89.4795 102.43 89.2465 102.862 89.0439C103.99 88.5425 107.093 87.2053 111.065 87.2053H111.234H111.244H111.271H111.286H111.307H111.323H111.487C115.448 87.2053 118.546 88.5475 119.689 89.0439C120.105 89.2465 120.205 89.4744 119.958 90.067ZM124.668 77.1969L120.875 87.3167C120.553 88.1373 120.232 88.036 119.658 87.7219C119.104 87.4028 115.727 86.0353 111.56 86.0353H111.097C106.935 86.0353 103.563 87.4028 102.994 87.7219C102.441 88.036 102.109 88.1879 101.788 87.3724L97.9893 77.2222C97.9893 77.2222 97.6785 76.4321 98.0368 76.3156C98.3687 76.2143 98.6057 76.6549 98.7374 76.9082C99.0483 77.4754 100.671 80.484 101.403 81.2742C102.056 81.963 102.641 81.9833 102.989 81.9022C103.748 81.7402 104.079 80.9146 103.842 78.6556C103.605 76.4017 103.489 76.118 103.89 76.042C104.243 75.9762 104.359 76.5384 104.453 76.8069C104.548 77.0753 105.328 80.2814 106.656 80.7576C107.699 81.1324 108.536 80.793 109.089 79.5977C109.706 78.2504 110.317 75.723 110.586 73.4133C110.828 71.281 110.86 70.4959 111.265 70.4959H111.381C111.792 70.4959 111.818 71.3924 112.071 73.5247C112.345 75.8394 112.956 78.3112 113.567 79.6585C114.11 80.8589 114.953 81.1628 116.001 80.793C117.324 80.3169 118.114 77.0956 118.204 76.8271C118.304 76.5536 118.414 75.9863 118.767 76.0522C119.178 76.1282 119.046 76.4118 118.82 78.6657C118.583 80.9247 118.915 81.7452 119.673 81.9124C120.021 81.9934 120.601 81.9681 121.259 81.2843C121.991 80.4942 123.609 77.4856 123.92 76.9183C124.057 76.66 124.294 76.2193 124.62 76.3257C124.989 76.4371 124.668 77.1969 124.668 77.1969ZM125.242 75.7381C124.768 75.7381 124.388 75.3735 124.388 74.9227C124.388 74.482 124.768 74.1173 125.242 74.1173C125.705 74.1173 126.085 74.482 126.085 74.9227C126.085 75.3735 125.705 75.7381 125.242 75.7381Z" fill="#FCFCFC"/>
<path opacity="0.1" d="M179.265 468.035L129.696 385.935L180.996 370.736L218.5 335.983L265.615 414.947L243.185 447.18L179.265 468.035Z" fill="url(#paint2_linear_1033_295)"/>
<path d="M259.731 407.95L259.765 407.997C259.837 408.14 259.853 408.328 259.751 408.526L259.735 408.567L252.595 422.777L249.908 428.105L248.028 431.83L247.153 433.577L246.43 435.013L244.551 438.738L241.753 444.283L233.848 460.013C233.79 460.147 233.68 460.256 233.556 460.326C233.434 460.407 233.278 460.45 233.138 460.442L228.405 460.381L203.555 460.078L196.261 459.989L192.704 459.946L187.324 459.881L175.546 459.739L175.496 459.733C175.277 459.732 175.109 459.627 175.019 459.505L174.985 459.458C174.959 459.391 174.934 459.333 174.929 459.274C174.926 459.235 174.922 459.195 174.929 459.155C174.942 459.074 174.965 458.992 174.997 458.91L181.865 445.241L187.594 433.849L200.89 407.414C201.026 407.154 201.31 406.98 201.599 406.985L231.183 407.349L243.927 407.507L259.222 407.696C259.311 407.698 259.393 407.721 259.475 407.743C259.506 407.761 259.547 407.777 259.579 407.794C259.653 407.848 259.687 407.894 259.731 407.95Z" fill="url(#paint3_linear_1033_295)"/>
<g filter="url(#filter0_d_1033_295)">
<path d="M241.764 444.302L233.86 460.032C233.802 460.166 233.691 460.275 233.568 460.345C233.446 460.426 233.29 460.469 233.15 460.461L228.417 460.4L203.567 460.097L196.273 460.008L192.716 459.965L187.335 459.9L185.204 457.226C183.934 455.644 184.202 453.321 185.795 452.06L220.994 424.07C222.577 422.8 224.89 423.069 226.161 424.662L230.369 429.954L233.192 433.503L235.177 435.99L236.863 438.115L238.839 440.602L241.764 444.302Z" fill="#FCFCFC"/>
</g>
<path opacity="0.5" d="M225.52 429.713L190.936 457.212C190.797 457.323 190.586 457.302 190.474 457.162L189.035 455.355C188.923 455.215 188.945 455.004 189.085 454.892L223.669 427.394C223.808 427.283 224.019 427.304 224.131 427.444L225.57 429.251C225.682 429.391 225.659 429.592 225.52 429.713Z" fill="#4DCBD3"/>
<path d="M212.869 446.378C212.98 446.518 212.958 446.729 212.809 446.841L196.253 460.009L192.696 459.967L192.45 459.649C192.328 459.511 192.35 459.3 192.5 459.187L210.966 444.511C211.105 444.39 211.307 444.422 211.429 444.571L212.869 446.378Z" fill="#4DCBD3"/>
<g filter="url(#filter1_d_1033_295)">
<path d="M252.586 422.788L249.899 428.116L248.019 431.84L247.144 433.588L246.421 435.024L244.542 438.749L241.744 444.294L233.839 460.024C233.781 460.158 233.671 460.267 233.547 460.337C233.425 460.417 233.269 460.461 233.129 460.453L228.396 460.392L220.812 436.886C220.188 434.959 221.244 432.888 223.191 432.263L230.349 429.955L252.586 422.788Z" fill="#FCFCFC"/>
</g>
<path d="M249.899 428.116L248.019 431.84L235.167 435.991L226.2 438.892C226.025 438.947 225.837 438.843 225.773 438.67L225.065 436.461C225.011 436.297 225.105 436.109 225.279 436.055L233.172 433.505L249.899 428.116Z" fill="#4DCBD3"/>
<g opacity="0.5">
<path opacity="0.5" d="M246.432 435.033L244.553 438.758L238.829 440.603L227.885 444.132C227.71 444.187 227.523 444.093 227.468 443.919L226.761 441.71C226.706 441.536 226.799 441.349 226.974 441.294L236.852 438.106L246.432 435.033Z" fill="#4DCBD3"/>
</g>
<g filter="url(#filter2_d_1033_295)">
<path d="M188.734 463.084L235.817 464.044L255.427 423.529C255.427 423.529 260.257 431.903 260.794 432.355C261.33 432.806 240.419 471.611 240.419 471.611L194.204 472.07L188.734 463.084Z" fill="#606060"/>
</g>
<path d="M259.765 407.997L290.833 459.096C291.181 459.673 291.306 460.319 291.249 460.931C291.158 461.835 290.664 462.684 289.831 463.183L210.185 511.615C209.352 512.125 208.371 512.169 207.536 511.833C206.969 511.603 206.445 511.19 206.097 510.613L175.029 459.514C175.12 459.646 175.288 459.741 175.507 459.742L175.557 459.748L203.555 460.078L233.138 460.442C233.278 460.45 233.434 460.407 233.556 460.326C233.679 460.246 233.789 460.137 233.848 460.013L247.143 433.578L259.724 408.558L259.74 408.517C259.853 408.328 259.837 408.14 259.765 407.997Z" fill="#FFDD76"/>
<path opacity="0.8" d="M250.052 487.455L208.28 512.854C207.703 513.202 207.085 512.728 207.364 512.156L219.971 487.095L233.267 460.66C233.394 460.4 233.687 460.226 233.976 460.231L263.56 460.594L291.608 460.93C292.245 460.935 292.391 461.709 291.815 462.067L250.052 487.455Z" fill="url(#paint4_linear_1033_295)"/>
<path d="M173.75 336.244C173.75 336.244 175.417 341.367 180.428 341.635C185.44 341.904 186.751 340.636 186.751 340.636C186.751 340.636 184.03 349.77 176.582 356.827C176.582 356.827 169.541 361.599 160.826 352.238C160.834 352.244 170.32 346.257 173.75 336.244Z" fill="url(#paint5_linear_1033_295)"/>
<path d="M44.1392 255.254C44.1392 255.254 41.363 257.654 43.5087 266.603C43.5087 266.603 48.2986 272.156 57.1358 269.003C57.1358 269.003 54.2375 262.19 56.7596 257.776C56.7596 257.776 50.8308 259.536 44.1392 255.254Z" fill="url(#paint6_linear_1033_295)"/>
<rect x="246.085" y="80.339" width="241.017" height="83.3898" rx="8" fill="#F6D36C"/>
<rect x="324.39" y="36.6102" width="241.017" height="21.3559" rx="4" fill="#4DCBD3"/>
<rect x="525.746" y="301.017" width="95.5932" height="33.5593" rx="4" fill="#4DCBD3"/>
<rect x="324.39" y="202.373" width="241.017" height="21.3559" rx="4" fill="#E9E9EA"/>
<rect x="324.39" y="241.017" width="129.153" height="21.3559" rx="4" fill="#E9E9EA"/>
<path d="M575.128 423.149C575.128 423.149 580.287 422.58 585.644 429.419C585.644 429.419 586.403 421.709 595.129 418.951C595.129 418.951 589.762 412.114 585.581 412.378C585.579 412.368 578.184 412.585 575.128 423.149Z" fill="#FCFCFC"/>
<path d="M642.937 189.119C642.937 189.119 642.982 194.309 635.636 198.947C635.636 198.947 643.229 200.482 645.091 209.442C645.091 209.442 652.436 204.793 652.596 200.607C652.606 200.607 653.138 193.227 642.937 189.119Z" fill="#FCFCFC"/>
<defs>
<filter id="filter0_d_1033_295" x="181.402" y="419.268" width="73.3627" height="53.1938" filterUnits="userSpaceOnUse" color-interpolation-filters="sRGB">
<feFlood flood-opacity="0" result="BackgroundImageFix"/>
<feColorMatrix in="SourceAlpha" type="matrix" values="0 0 0 0 0 0 0 0 0 0 0 0 0 0 0 0 0 0 127 0" result="hardAlpha"/>
<feOffset dx="5" dy="4"/>
<feGaussianBlur stdDeviation="4"/>
<feColorMatrix type="matrix" values="0 0 0 0 0.675 0 0 0 0 0.524587 0 0 0 0 0.137812 0 0 0 0.1 0"/>
<feBlend mode="normal" in2="BackgroundImageFix" result="effect1_dropShadow_1033_295"/>
<feBlend mode="normal" in="SourceGraphic" in2="effect1_dropShadow_1033_295" result="shape"/>
</filter>
<filter id="filter1_d_1033_295" x="212.633" y="421.788" width="43.9534" height="49.6654" filterUnits="userSpaceOnUse" color-interpolation-filters="sRGB">
<feFlood flood-opacity="0" result="BackgroundImageFix"/>
<feColorMatrix in="SourceAlpha" type="matrix" values="0 0 0 0 0 0 0 0 0 0 0 0 0 0 0 0 0 0 127 0" result="hardAlpha"/>
<feOffset dx="-2" dy="5"/>
<feGaussianBlur stdDeviation="3"/>
<feColorMatrix type="matrix" values="0 0 0 0 0.5 0 0 0 0 0.380417 0 0 0 0 0.0729167 0 0 0 0.1 0"/>
<feBlend mode="normal" in2="BackgroundImageFix" result="effect1_dropShadow_1033_295"/>
<feBlend mode="normal" in="SourceGraphic" in2="effect1_dropShadow_1033_295" result="shape"/>
</filter>
<filter id="filter2_d_1033_295" x="176.734" y="409.529" width="88.0703" height="64.5405" filterUnits="userSpaceOnUse" color-interpolation-filters="sRGB">
<feFlood flood-opacity="0" result="BackgroundImageFix"/>
<feColorMatrix in="SourceAlpha" type="matrix" values="0 0 0 0 0 0 0 0 0 0 0 0 0 0 0 0 0 0 127 0" result="hardAlpha"/>
<feOffset dx="-4" dy="-6"/>
<feGaussianBlur stdDeviation="4"/>
<feColorMatrix type="matrix" values="0 0 0 0 0.479167 0 0 0 0 0.362889 0 0 0 0 0.0638889 0 0 0 0.15 0"/>
<feBlend mode="normal" in2="BackgroundImageFix" result="effect1_dropShadow_1033_295"/>
<feBlend mode="normal" in="SourceGraphic" in2="effect1_dropShadow_1033_295" result="shape"/>
</filter>
<linearGradient id="paint0_linear_1033_295" x1="392.051" y1="400.678" x2="391.574" y2="540" gradientUnits="userSpaceOnUse">
<stop offset="0.137749" stop-color="#D1D4DB"/>
<stop offset="0.620358" stop-color="#E6E8EB"/>
<stop offset="0.860326" stop-color="#F5F6F7"/>
</linearGradient>
<linearGradient id="paint1_linear_1033_295" x1="607.61" y1="248.136" x2="30.4915" y2="381.356" gradientUnits="userSpaceOnUse">
<stop stop-color="#4DCBD3"/>
<stop offset="1" stop-color="#4DCBD3" stop-opacity="0"/>
</linearGradient>
<linearGradient id="paint2_linear_1033_295" x1="231.68" y1="457.543" x2="181.961" y2="374.142" gradientUnits="userSpaceOnUse">
<stop stop-color="#4DCBD3"/>
<stop offset="1" stop-color="#4DCBD3" stop-opacity="0"/>
</linearGradient>
<linearGradient id="paint3_linear_1033_295" x1="201.991" y1="408.027" x2="234.133" y2="461.733" gradientUnits="userSpaceOnUse">
<stop offset="0.0112" stop-color="#FFDD76"/>
<stop offset="1" stop-color="#E8AE46"/>
</linearGradient>
<linearGradient id="paint4_linear_1033_295" x1="224.481" y1="445.418" x2="245.664" y2="480.254" gradientUnits="userSpaceOnUse">
<stop offset="0.0112" stop-color="#E8AE46"/>
<stop offset="1" stop-color="#E8AE46" stop-opacity="0"/>
</linearGradient>
<linearGradient id="paint5_linear_1033_295" x1="178.458" y1="358.983" x2="166.254" y2="332.542" gradientUnits="userSpaceOnUse">
<stop stop-color="#FCFCFC"/>
<stop offset="1" stop-color="#FCFCFC" stop-opacity="0.6"/>
</linearGradient>
<linearGradient id="paint6_linear_1033_295" x1="56.9322" y1="255.254" x2="38.1187" y2="269.492" gradientUnits="userSpaceOnUse">
<stop stop-color="#FCFCFC"/>
<stop offset="1" stop-color="#FCFCFC" stop-opacity="0.5"/>
</linearGradient>
</defs>
</svg>
